<?xml version="1.0" encoding="UTF-8" standalone="no"?>
<!-- Created with Inkscape (http://www.inkscape.org/) -->

<svg
   xmlns:dc="http://purl.org/dc/elements/1.1/"
   xmlns:cc="http://creativecommons.org/ns#"
   xmlns:rdf="http://www.w3.org/1999/02/22-rdf-syntax-ns#"
   xmlns:svg="http://www.w3.org/2000/svg"
   xmlns="http://www.w3.org/2000/svg"
   xmlns:sodipodi="http://sodipodi.sourceforge.net/DTD/sodipodi-0.dtd"
   xmlns:inkscape="http://www.inkscape.org/namespaces/inkscape"
   version="1.1"
   id="svg2"
   width="139.91489"
   height="86.80851"
   viewBox="0 0 139.91489 86.80851"
   sodipodi:docname="logo6._2jpg.svg"
   inkscape:version="0.92.4 (fd57863, 2020-04-02)">
  <metadata
     id="metadata8">
    <rdf:RDF>
      <cc:Work
         rdf:about="">
        <dc:format>image/svg+xml</dc:format>
        <dc:type
           rdf:resource="http://purl.org/dc/dcmitype/StillImage" />
        <dc:title></dc:title>
      </cc:Work>
    </rdf:RDF>
  </metadata>
  <defs
     id="defs6" />
  <sodipodi:namedview
     pagecolor="#ffffff"
     bordercolor="#666666"
     borderopacity="1"
     objecttolerance="10"
     gridtolerance="10"
     guidetolerance="10"
     inkscape:pageopacity="0"
     inkscape:pageshadow="2"
     inkscape:window-width="1920"
     inkscape:window-height="1016"
     id="namedview4"
     showgrid="false"
     inkscape:zoom="2.544404"
     inkscape:cx="69.957443"
     inkscape:cy="43.404255"
     inkscape:window-x="0"
     inkscape:window-y="27"
     inkscape:window-maximized="1"
     inkscape:current-layer="svg2" />
  <path
     style="fill:#000000;stroke-width:1.18772161"
     d="M 3.302884,82.117805 C 1.4019697,80.26117 0.70326997,71.878535 2.1438203,68.211964 c 0.4012139,-1.021192 2.0406172,-1.856713 3.6431208,-1.856713 3.020627,0 4.7336609,2.333779 3.6333536,4.949959 C 9.0243974,72.246528 8.4739039,71.802932 7.9521093,70.122126 6.489084,65.409429 4.4188418,68.01668 4.4188418,74.571902 c 0,4.182482 0.5333692,6.433953 1.606994,6.783493 1.1598134,0.377598 1.4986848,-0.485325 1.2177737,-3.101009 -0.4689167,-4.366269 1.8170487,-5.054528 2.3697262,-0.713477 0.3760642,2.953829 -1.4886305,6.421451 -3.4531029,6.421451 -0.5328432,0 -1.8186491,-0.83005 -2.8573488,-1.844555 z m 8.625844,-0.329756 c -0.656636,-2.452493 0.08395,-14.43746 0.944039,-15.277518 0.307769,-0.300602 0.559583,3.503087 0.559583,8.452639 0,9.01326 -0.41426,10.89357 -1.503622,6.824879 z m 10.775401,0.647701 c -0.910224,-2.316757 -5.140015,-2.678671 -6.165663,-0.527553 -0.766765,1.608152 0.281739,-8.673587 1.316716,-12.91188 1.246781,-5.105633 3.690062,-2.783668 5.178587,4.921454 1.450631,7.508969 1.255452,12.552446 -0.32964,8.517979 z m -0.978968,-5.809686 c -0.220465,-2.700248 -2.04244,-7.359247 -2.180422,-5.575584 -0.07491,0.968391 -0.462302,2.949191 -0.860863,4.401778 -0.532748,1.941634 -0.210129,2.641066 1.218211,2.641066 1.068578,0 1.888961,-0.660267 1.823074,-1.46726 z m 6.366944,6.331081 c -1.086493,-0.673098 -1.453712,-3.267937 -1.2018,-8.492127 0.344649,-7.147367 0.512722,-7.522863 3.367258,-7.522863 2.326674,0 3.069583,0.662038 3.292978,2.934518 l 0.288477,2.934518 -1.188332,-2.73937 c -2.022879,-4.663185 -4.195825,-2.332669 -4.195825,4.500081 0,6.806611 2.201249,9.20417 4.13162,4.500081 l 1.124128,-2.73937 0.07618,3.102385 c 0.04418,1.799014 -0.722467,3.401716 -1.824816,3.814874 -2.29594,0.860513 -1.968348,0.885292 -3.869866,-0.292727 z m 9.676713,0.227825 c -0.99858,-0.39355 -1.502251,-3.314118 -1.502251,-8.710885 v -8.118834 h 3.605403 c 3.092519,0 3.628551,0.459192 3.768122,3.227971 0.594748,11.798399 -1.010579,15.517395 -5.871274,13.601748 z m 3.905854,-8.710885 c 0,-4.869126 -0.422171,-6.358123 -1.802702,-6.358123 -1.893121,0 -3.230784,8.526501 -1.877889,11.969972 1.524174,3.879412 3.680591,0.591493 3.680591,-5.611849 z m 4.386807,0.880355 c -0.209598,-10.676916 1.885146,-11.948687 4.052864,-2.460592 l 1.321997,5.786379 0.917442,-4.108325 c 2.579349,-11.550365 4.404565,-11.163603 4.154593,0.880356 -0.175504,8.456026 -0.24454,8.683469 -0.979787,3.227969 l -0.790981,-5.869036 -0.983945,5.03407 c -1.142117,5.843313 -3.046474,5.910707 -4.753414,0.168222 l -1.197456,-4.028484 -0.780406,5.282131 c -0.667404,4.517287 -0.806542,3.950735 -0.960907,-3.91269 z m 14.479253,7.602705 c -1.086493,-0.673098 -1.453714,-3.267937 -1.201802,-8.492127 0.333515,-6.916461 0.593987,-7.554797 3.231347,-7.919013 3.713818,-0.512877 4.902054,1.474189 4.924711,8.235504 0.02358,7.036845 -3.018883,10.613658 -6.954256,8.175636 z m 3.968158,-8.385243 c 0,-7.795229 -2.565822,-9.419077 -3.179304,-2.012109 -0.544331,6.572045 0.01206,9.303568 1.777982,8.728641 0.833675,-0.271418 1.401322,-2.992148 1.401322,-6.716532 z m 9.253866,7.981889 c -1.501782,-1.466802 -1.98114,-11.113272 -0.712681,-14.341827 0.401214,-1.021192 2.040619,-1.856713 3.643122,-1.856713 3.020626,0 4.733661,2.333779 3.633353,4.949959 -0.395897,0.941318 -0.946391,0.497722 -1.468184,-1.183084 -1.463027,-4.712697 -3.533268,-2.105446 -3.533268,4.449776 0,3.964861 0.550825,6.439637 1.502252,6.749391 0.881319,0.28693 1.50225,-0.521691 1.50225,-1.956346 0,-1.344986 0.540811,-2.445431 1.201801,-2.445431 0.660991,0 1.201801,0.950784 1.201801,2.112853 0,2.362665 -2.19046,4.929991 -4.206304,4.929991 -0.727089,0 -1.970953,-0.633857 -2.764142,-1.408569 z m 9.614408,0 c -1.642673,-1.60441 -1.925575,-12.462416 -0.386496,-14.83398 0.560373,-0.863476 2.309727,-1.39169 3.88745,-1.173806 2.598947,0.358912 2.902755,1.039894 3.232041,7.244579 0.465655,8.774244 -2.615644,12.784652 -6.732995,8.763207 z m 4.566844,-8.079706 c 0,-9.482023 -2.847493,-9.072445 -3.364927,0.484004 -0.291364,5.381168 -0.0035,6.656657 1.502251,6.656657 1.478238,0 1.862676,-1.473761 1.862676,-7.140661 z m 10.343883,7.631562 c -0.401206,-1.021194 -0.729476,-2.86994 -0.729476,-4.108325 0,-1.238387 -0.811214,-2.251612 -1.802696,-2.251612 -1.201805,0 -1.802707,1.173806 -1.802707,3.52142 0,1.936783 -0.405607,3.521408 -0.90135,3.521392 -0.495743,-1.7e-5 -0.831173,-2.773136 -0.745401,-6.162487 0.273601,-10.811493 0.142771,-10.460677 3.749898,-10.055298 3.235134,0.363571 3.31113,0.551211 3.597283,8.881521 0.294015,8.559405 -0.01847,10.082003 -1.365551,6.653389 z M 97.948194,69.175676 c -0.355818,-0.905639 -1.146862,-1.646617 -1.757872,-1.646617 -1.64328,0 -2.613487,3.221554 -1.67916,5.575583 0.767591,1.933911 0.910992,1.927232 2.449645,-0.114096 0.898871,-1.192541 1.343194,-2.909234 0.987387,-3.814872 z m 4.417426,5.983129 v -8.803554 h 3.47682 c 4.03291,0 4.93578,1.61262 4.93578,8.815714 0,5.530345 -2.2608,8.791395 -6.09484,8.791395 -2.08312,0 -2.31776,-0.891224 -2.31776,-8.803555 z m 5.4081,-0.586903 c 0,-3.964861 -0.55082,-6.439637 -1.50224,-6.749391 -1.09353,-0.35602 -1.50226,1.480301 -1.50226,6.749391 0,5.26909 0.40873,7.105411 1.50226,6.749391 0.95142,-0.309754 1.50224,-2.78453 1.50224,-6.749391 z m 5.64847,7.981889 c -0.79319,-0.774713 -1.44216,-4.453621 -1.44216,-8.175352 0,-5.280699 0.4687,-7.011779 2.13418,-7.882359 4.15678,-2.172824 6.27843,0.496581 6.27843,7.899387 0,6.465328 -1.36368,9.566893 -4.20631,9.566893 -0.7271,0 -1.97096,-0.633857 -2.76414,-1.408569 z m 4.32636,-7.595702 c -0.51744,-9.556449 -3.36492,-9.966027 -3.36492,-0.484004 0,5.6669 0.38443,7.140661 1.86267,7.140661 1.50578,0 1.79361,-1.275489 1.50225,-6.656657 z m 10.43231,7.537012 c -0.30192,-0.806993 -1.32846,-3.580113 -2.2812,-6.162488 l -1.73227,-4.695229 -0.0847,5.575584 c -0.0465,3.066571 -0.62543,5.575584 -1.28642,5.575584 -0.68675,0 -1.20181,-3.521422 -1.20181,-8.21665 0,-9.686621 2.24802,-11.176154 4.8717,-3.22797 l 1.64674,4.988681 0.76659,-5.282133 c 0.65485,-4.512333 0.79288,-3.956366 0.94708,3.814873 0.16938,8.536519 -0.3703,11.038654 -1.64568,7.629748 z m 4.22978,-7.267021 c 0,-5.132681 0.5066,-8.872829 1.20181,-8.872829 0.68577,0 1.20179,3.498331 1.20179,8.147376 0,4.481058 -0.54081,8.47383 -1.20179,8.872829 -0.76072,0.459197 -1.20181,-2.531059 -1.20181,-8.147376 z M 53.110719,43.48456 39.348152,30.004325 53.449763,16.231184 67.551375,2.4580447 81.353095,15.900037 c 7.590944,7.393096 13.801722,13.98783 13.801722,14.654965 0,1.556864 -25.483395,26.409791 -27.079754,26.409791 -0.660978,0 -7.394933,-6.066105 -14.964344,-13.480233 z m 10.580406,-9.702459 c 0.258308,-1.776411 -0.233512,-2.641067 -1.502252,-2.641067 -1.037458,0 -1.886287,0.775743 -1.886287,1.723871 0,2.080461 -3.138242,1.158253 -4.062318,-1.193756 -0.92234,-2.347596 2.390213,-5.125684 5.242978,-4.397045 1.344149,0.343315 2.424742,0.04516 2.424742,-0.669033 0,-0.708589 -1.443269,-1.642146 -3.207267,-2.074569 -2.482748,-0.608614 -3.704436,-0.186547 -5.408104,1.868387 -2.741014,3.30616 -2.785826,5.686655 -0.16039,8.520153 2.821874,3.045505 8.051749,2.350783 8.558898,-1.136941 z m 17.98079,1.467258 c -0.322736,-1.121426 -0.836597,-1.318232 -4.243665,-1.625311 -2.129676,-0.191949 -1.864065,-4.644929 0.409515,-6.865549 1.496666,-1.461805 2.116411,-1.543824 2.854277,-0.377742 0.614824,0.971634 1.209727,1.067202 1.711088,0.274877 0.422716,-0.668039 -0.30047,-1.546014 -1.607082,-1.951058 -5.873481,-1.820747 -10.71904,5.590927 -6.577445,10.060739 2.197514,2.371666 8.107007,2.755448 7.453312,0.484044 z"
     id="path4520"
     inkscape:connector-curvature="0" />
</svg>
